# xmcd
#
# Track frame offsets:
#	150
#	17285
#	32400
#	49317
#	66865
#	83030
#	99775
#	119230
#	140282
#	160192
#
# Disc length: 2355 seconds
#
# Revision: 1
# Processed by: cddbd v1.5.2PL0 Copyright (c) Steve Scherf et al.
# Submitted via: audiograbber 1.83.01
#
DISCID=7609310a
DTITLE=LeAnn Rimes - I Need You
DYEAR=2001
DGENRE=Country
TTITLE0=I Need You
TTITLE1=But I Do Love You
TTITLE2=You Are
TTITLE3=Soon
TTITLE4=Can't Fight The Moonlight
TTITLE5=Love Must Be Telling Me Something
TTITLE6=Written In The Stars (Duet with Elton John)
TTITLE7=One Of These Days
TTITLE8=I Believe In You
TTITLE9=Together, Forever, Always
EXTD=\n YEAR: 2001 ID3G:   2\n
EXTT0=
EXTT1=
EXTT2=
EXTT3=
EXTT4=
EXTT5=
EXTT6=
EXTT7=
EXTT8=
EXTT9=
PLAYORDER=
